<svg width="336" height="102" viewBox="0 0 336 102" fill="none" xmlns="http://www.w3.org/2000/svg">
<g clip-path="url(#clip0_2028_7914)">
<path d="M126.184 78.0388V24.0132H135.076V78.0388H126.184ZM133.594 78.0388V70.1209H157.682V78.0388H133.594V78.0388Z" fill="black"/>
<path d="M162.055 44.8096V38.1486H176.58V44.8096H162.055ZM170.726 32.5996C168.947 32.5996 167.624 32.1299 166.759 31.1923C165.895 30.2568 165.462 29.0463 165.462 27.5667C165.462 26.1353 165.895 24.9388 166.759 23.9771C167.624 23.0155 168.947 22.5337 170.726 22.5337C172.553 22.5337 173.898 23.0155 174.765 23.9771C175.627 24.9388 176.062 26.1353 176.062 27.5667C176.062 29.0462 175.628 30.2568 174.765 31.1923C173.898 32.1299 172.553 32.5996 170.726 32.5996ZM167.909 78.0389V38.1486H176.58V78.0389H167.909Z" fill="black"/>
<path d="M189.476 78.0387V38.1483H196.37V55.2448H195.553C195.553 51.2979 196.084 47.9673 197.148 45.2531C198.209 42.5409 199.828 40.4811 202.001 39.0738C204.174 37.6685 206.868 36.9639 210.079 36.9639H210.451C215.391 36.9639 219.072 38.5197 221.495 41.6274C223.913 44.7352 225.126 49.2763 225.126 55.2448V78.0387H216.454V54.0603C216.454 51.2979 215.662 49.0655 214.082 47.363C212.5 45.6606 210.326 44.8094 207.56 44.8094C204.743 44.8094 202.471 45.6867 200.742 47.4373C199.011 49.1879 198.147 51.5207 198.147 54.4297V78.0387H189.476V78.0387Z" fill="black"/>
<path d="M237.205 78.0388V24.0132H245.876V78.0388H237.205ZM264.924 78.0388L250.695 59.4628H244.469L262.035 38.1485H271.225L255.068 57.5395L255.438 53.0988L274.856 78.0388H264.924L264.924 78.0388Z" fill="black"/>
<path d="M276.263 30.6743V24.0132H290.27V30.6743H276.263V30.6743ZM281.524 78.0388V24.0132H290.27V78.0388H281.524Z" fill="black"/>
<path d="M311.245 77.1514L297.683 38.1484H306.503L319.472 77.1514H311.245V77.1514ZM301.092 93.6536V86.0309H307.689C309.219 86.0309 310.53 85.8462 311.617 85.4768C312.703 85.1074 313.592 84.465 314.285 83.5515C314.977 82.6381 315.544 81.4175 315.99 79.8897L327.625 38.1484H336.001L323.401 81.9615C322.609 84.724 321.511 86.9684 320.102 88.6949C318.694 90.4214 316.915 91.6802 314.766 92.4691C312.617 93.2581 310.035 93.6536 307.021 93.6536H301.092H301.092ZM313.395 77.1514V70.1209H321.991V77.1514H313.395Z" fill="black"/>
<path d="M51.0742 102C79.2818 102 102.148 79.1665 102.148 51C102.148 22.8335 79.2818 0 51.0742 0C22.8667 0 0 22.8335 0 51C0 79.1665 22.8667 102 51.0742 102Z" fill="#9043FF"/>
<path d="M36.0526 78C42.6897 78 48.0701 72.6274 48.0701 66C48.0701 59.3726 42.6897 54 36.0526 54C29.4156 54 24.0352 59.3726 24.0352 66C24.0352 72.6274 29.4156 78 36.0526 78Z" fill="white"/>
<path d="M36.0526 48C42.6897 48 48.0701 42.6274 48.0701 36C48.0701 29.3726 42.6897 24 36.0526 24C29.4156 24 24.0352 29.3726 24.0352 36C24.0352 42.6274 29.4156 48 36.0526 48Z" fill="white"/>
<path d="M66.0966 78C72.7336 78 78.114 72.6274 78.114 66C78.114 59.3726 72.7336 54 66.0966 54C59.4595 54 54.0791 59.3726 54.0791 66C54.0791 72.6274 59.4595 78 66.0966 78Z" fill="white"/>
<path d="M66.0966 48C72.7336 48 78.114 42.6274 78.114 36C78.114 29.3726 72.7336 24 66.0966 24C59.4595 24 54.0791 29.3726 54.0791 36C54.0791 42.6274 59.4595 48 66.0966 48Z" fill="white"/>
<path d="M48.0701 36H24.0352V66H48.0701V36Z" fill="white"/>
<path d="M48.0702 66H36.0527V78H48.0702V66Z" fill="white"/>
<path d="M66.0966 66H54.0791V78H66.0966V66Z" fill="white"/>
</g>
<defs>
<clipPath id="clip0_2028_7914">
<rect width="336" height="102" fill="white"/>
</clipPath>
</defs>
</svg>
