<svg width="32" height="28" viewBox="0 0 32 28" fill="none" xmlns="http://www.w3.org/2000/svg">
    <path d="M16.0001 0C16.8876 0 17.7064 0.46875 18.1564 1.2375L31.6564 24.2375C32.1126 25.0125 32.1126 25.9688 31.6689 26.7437C31.2251 27.5187 30.3939 28 29.5001 28H2.50013C1.60638 28 0.775135 27.5187 0.331385 26.7437C-0.112365 25.9688 -0.106115 25.0062 0.343885 24.2375L13.8439 1.2375C14.2939 0.46875 15.1126 0 16.0001 0ZM16.0001 8C15.1689 8 14.5001 8.66875 14.5001 9.5V16.5C14.5001 17.3312 15.1689 18 16.0001 18C16.8314 18 17.5001 17.3312 17.5001 16.5V9.5C17.5001 8.66875 16.8314 8 16.0001 8ZM18.0001 22C18.0001 21.4696 17.7894 20.9609 17.4143 20.5858C17.0393 20.2107 16.5306 20 16.0001 20C15.4697 20 14.961 20.2107 14.5859 20.5858C14.2108 20.9609 14.0001 21.4696 14.0001 22C14.0001 22.5304 14.2108 23.0391 14.5859 23.4142C14.961 23.7893 15.4697 24 16.0001 24C16.5306 24 17.0393 23.7893 17.4143 23.4142C17.7894 23.0391 18.0001 22.5304 18.0001 22Z" fill="#D32F2F"/>
</svg>
